<svg width="3" height="14" viewBox="0 0 3 14" fill="none" xmlns="http://www.w3.org/2000/svg">
<path d="M3 1.5C3 2.32875 2.32845 3 1.5 3C0.67155 3 0 2.32875 0 1.5C0 0.67125 0.67155 0 1.5 0C2.32845 0 3 0.67125 3 1.5Z" fill="#888888"/>
<path d="M3 7C3 7.82875 2.32845 8.5 1.5 8.5C0.67155 8.5 0 7.82875 0 7C0 6.17125 0.67155 5.5 1.5 5.5C2.32845 5.5 3 6.17125 3 7Z" fill="#888888"/>
<path d="M3 12.5C3 13.325 2.32845 14 1.5 14C0.67155 14 0 13.325 0 12.5C0 11.675 0.67155 11 1.5 11C2.32845 11 3 11.675 3 12.5Z" fill="#888888"/>
</svg>
